<svg xmlns="http://www.w3.org/2000/svg" width="85" height="32" viewBox="0 0 85 32"><defs/><path d="M47.5 13.61v4.78a2.84 2.84 0 01-1.2 2.7 9 9 0 01-4.23.71h-4.9V10h4.89a8.79 8.79 0 014.19.74 3.06 3.06 0 011.25 2.87zm-2.77 4.78v-4.84a1.23 1.23 0 00-.67-1.19A4.87 4.87 0 0042 12h-2.1v7.75h2a6.65 6.65 0 002.19-.25c.45-.12.64-.5.64-1.11zM58.08 16.2v2.59a3.51 3.51 0 01-.26 1.45 2.64 2.64 0 01-.65.94 3 3 0 01-1 .52 6.31 6.31 0 01-1.16.22H52.48a8.21 8.21 0 01-1.15-.22 2.93 2.93 0 01-1-.52 2.49 2.49 0 01-.65-.94 3.58 3.58 0 01-.26-1.45V16.2a4 4 0 01.27-1.56 2.55 2.55 0 01.68-1 2.51 2.51 0 011-.53 5.63 5.63 0 011.15-.24 15 15 0 012.45 0 5.63 5.63 0 011.15.24 2.64 2.64 0 011 .53 2.55 2.55 0 01.68 1 3.86 3.86 0 01.28 1.56zm-2.58 2.89v-3.31a1.3 1.3 0 00-.35-1 2.35 2.35 0 00-1.42-.3 2.4 2.4 0 00-1.43.3 1.23 1.23 0 00-.36 1v3.31a1.19 1.19 0 00.35 1 2.51 2.51 0 001.42.27 2.47 2.47 0 001.42-.27 1.09 1.09 0 00.37-1zM68.57 16.2v2.59a3.51 3.51 0 01-.26 1.45 2.64 2.64 0 01-.65.94 3 3 0 01-1 .52 6.16 6.16 0 01-1.16.22H62.97a8.21 8.21 0 01-1.15-.22 2.79 2.79 0 01-1-.52 2.62 2.62 0 01-.66-.94 3.58 3.58 0 01-.26-1.45V16.2a4 4 0 01.27-1.56 2.55 2.55 0 01.68-1 2.51 2.51 0 011-.53 5.77 5.77 0 011.15-.22 10.89 10.89 0 011.23-.05 10.7 10.7 0 011.22.05 5.63 5.63 0 011.15.24 2.64 2.64 0 011 .53 2.55 2.55 0 01.68 1 4.24 4.24 0 01.29 1.54zM66 19.09v-3.31a1.27 1.27 0 00-.36-1 3.51 3.51 0 00-2.84 0 1.22 1.22 0 00-.35 1v3.31a1.19 1.19 0 00.35 1 3.87 3.87 0 002.84 0 1.14 1.14 0 00.36-1zM76.2 15h-.88a3.11 3.11 0 00-1.6.33 1.24 1.24 0 00-.55 1.15v5.27h-2.58V13H73v1.55a1.55 1.55 0 01.74-1.19 2.43 2.43 0 011.49-.53h.93zM85 18.38v1.11a2.31 2.31 0 01-.24 1.12 2 2 0 01-.6.74 2.89 2.89 0 01-1 .41 5.79 5.79 0 01-1.12.18h-1.27a24 24 0 01-3.38-.27V20a25.22 25.22 0 003.42.38 3.68 3.68 0 001.19-.19.6.6 0 00.42-.6V19a.77.77 0 00-.23-.62 1.58 1.58 0 00-1-.21h-1.07a3.46 3.46 0 01-2.12-.52 1.88 1.88 0 01-.73-1.65v-1a1.65 1.65 0 011.12-1.65 8.64 8.64 0 013.14-.46c.57 0 1.58.05 3 .16v1.69a74.89 74.89 0 00-3.12-.22 3.64 3.64 0 00-1.36.15.59.59 0 00-.28.59v.47a.47.47 0 00.22.39 1 1 0 00.68.19h1.14C84 16.27 85 17 85 18.38zM41.42 26.71V29a1.23 1.23 0 01-.18.68 1.1 1.1 0 01-.51.41 3.58 3.58 0 01-.64.18 3.51 3.51 0 01-.67.05c-1.32 0-2-.43-2-1.32v-2.29c0-.93.67-1.4 2-1.4s2 .48 2 1.4zM40.73 29v-2.31c0-.6-.43-.9-1.31-.9a3.47 3.47 0 00-.49 0 1.4 1.4 0 00-.41.13.7.7 0 00-.32.27.88.88 0 00-.1.45V29c0 .55.43.84 1.32.84s1.31-.27 1.31-.84zM46.37 30.24h-.66v-.44c-.08.34-.46.52-1.16.52a1.38 1.38 0 01-1-.26 1.1 1.1 0 01-.27-.78v-2.65H44v2.61a1.17 1.17 0 000 .22.64.64 0 00.08.19.43.43 0 00.23.14 1.58 1.58 0 00.41 0 2.2 2.2 0 00.76-.09.41.41 0 00.22-.39v-2.68h.66zM50.56 30.27a4.32 4.32 0 01-.73.06 1.39 1.39 0 01-.93-.23 1.21 1.21 0 01-.27-.89v-2.12h-.78v-.44h.78v-1.13h.67v1.13h1.26v.44h-1.25v2.16a.74.74 0 00.14.52 1 1 0 00.59.13l.53-.06v.43zM54.75 29v.31a.83.83 0 01-.4.8 2.48 2.48 0 01-1.14.22 9.11 9.11 0 01-1.21-.1v-.52a8.29 8.29 0 001.23.14 1.63 1.63 0 00.66-.09.33.33 0 00.22-.35V29a.38.38 0 00-.16-.34.94.94 0 00-.49-.1H53a1.28 1.28 0 01-.84-.23.79.79 0 01-.29-.64v-.29c0-.57.53-.85 1.58-.85l1.07.06v.48a5.83 5.83 0 00-1.1-.11 1.45 1.45 0 00-.71.11.37.37 0 00-.19.34v.31c0 .25.22.37.65.37h.41c.8.01 1.17.3 1.17.89zM59.62 27.85v1.26a1.59 1.59 0 01-.09.57.94.94 0 01-.2.36 1.06 1.06 0 01-.35.19 1.91 1.91 0 01-.44.09h-1.23a2.48 2.48 0 01-.49-.15.67.67 0 01-.35-.37 1.82 1.82 0 01-.11-.68v-1.27a1.76 1.76 0 01.09-.6 1.12 1.12 0 01.2-.38.9.9 0 01.36-.21 1.91 1.91 0 01.44-.09h1.1a1.91 1.91 0 01.44.09.63.63 0 01.35.21 1.12 1.12 0 01.2.38 1.76 1.76 0 01.08.6zm-.68 1.36v-1.47c0-.33-.07-.54-.19-.61A1.61 1.61 0 0058 27a1.49 1.49 0 00-.76.13c-.13.08-.19.28-.19.61v1.47a1.3 1.3 0 00.05.38.33.33 0 00.19.21.79.79 0 00.29.08h.87a1.82 1.82 0 00.29-.08.39.39 0 00.19-.21 3.63 3.63 0 00.01-.38zM64.53 30.24h-.65v-.44c-.07.34-.46.52-1.16.52a1.38 1.38 0 01-1-.26 1.05 1.05 0 01-.26-.78v-2.65h.66v2.61a.72.72 0 000 .22.39.39 0 00.1.19.43.43 0 00.23.14 1.58 1.58 0 00.41 0 2.14 2.14 0 00.75-.09.4.4 0 00.22-.39v-2.68h.65v3.61zM68.42 27.14h-.36a1.27 1.27 0 00-.66.12.44.44 0 00-.22.44v2.56h-.66v-3.62h.62v.6a.57.57 0 01.32-.47 1.13 1.13 0 01.65-.2h.32v.57zM72.41 30.22a5.44 5.44 0 01-1.14.11h-.5a3.92 3.92 0 01-.41-.07.65.65 0 01-.35-.19.86.86 0 01-.21-.34 1.6 1.6 0 01-.08-.57v-1.34a2 2 0 01.06-.52A1 1 0 0170 27a1.65 1.65 0 01.24-.22.72.72 0 01.34-.11l.37-.05h.45a5 5 0 011 .11v.49a4.32 4.32 0 00-1.13-.22 1.23 1.23 0 00-.71.14.73.73 0 00-.17.57v1.49a.59.59 0 00.2.53 1.52 1.52 0 00.76.13 5.2 5.2 0 001.07-.13v.49zM74.73 26h-.65v-.71h.65zm0 4.21h-.65v-3.58h.65zM79.76 30.24h-.65v-2.61a1.27 1.27 0 000-.22.5.5 0 00-.1-.19.43.43 0 00-.23-.14 1.17 1.17 0 00-.41 0 1.56 1.56 0 00-.77.12.53.53 0 00-.19.47v2.61h-.65v-3.66h.65v.44c.07-.34.46-.51 1.16-.51a1.37 1.37 0 011 .25 1.06 1.06 0 01.27.78v2.66zM84.76 26.63v4a1.12 1.12 0 01-.42 1 2.46 2.46 0 01-1.26.27 6.75 6.75 0 01-1.22-.08v-.48a11.7 11.7 0 001.28.11 1.49 1.49 0 00.73-.16.62.62 0 00.23-.55v-.86c0 .17-.12.28-.34.36a2.4 2.4 0 01-.74.11 1.8 1.8 0 01-1.11-.25 1.06 1.06 0 01-.3-.85v-1.48a1.16 1.16 0 01.33-.92 1.73 1.73 0 011.11-.27c.62 0 1 .13 1.09.43v-.35h.62zm-.66 2.64v-1.64a.54.54 0 00-.18-.48 1.46 1.46 0 00-.77-.14 1.37 1.37 0 00-.71.12.59.59 0 00-.17.48v1.64a.58.58 0 00.18.5 1.61 1.61 0 00.72.11 1.44 1.44 0 00.72-.13c.11-.06.21-.22.21-.46zM0 0v32l14.13-2.8V2.8zm8.56 21.92H6.44V10h2.12zM17.25 2.8v26.4L31.37 32V0zm11 9.05h-3.32v10.06h-2.11V11.85h-3.31V10h8.77z" fill="#fff"/></svg>