<svg xmlns="http://www.w3.org/2000/svg" viewBox="0 0 375 277.02"><path fill="#ececec" d="m375 84.47-6.48 31.26-4.17-4.05-7.09 5.04-5.43-6.71-12.16 8.81-10.39-17.32-11.6 6.77-4.59-6.31-14.72 8.26-4.43-9.45 10.32-49.78 55.33 11.38 15.42 22.09Z"/><path fill="#dcdcdc" d="M359.58 62.38 375 84.47l-19.19-3.95 3.77-18.15Z"/><path fill="#ececec" d="m367.14 121.98-9.5 45.86-74.53-15.32 9.44-45.5 4.43 9.45 14.72-8.26 4.59 6.31 11.6-6.76 10.39 17.31 12.16-8.8 5.43 6.7 7.09-5.04 4.17 4.05Zm-106.65-5.38-75.95 4.68-6.03-97.1 56.39-3.48 20.71 17.29 4.88 78.6Z"/><path fill="#dcdcdc" d="M234.89 20.71 255.6 38l-19.56 1.21-1.15-18.49Zm-21.05 65.33-.29-2.19c-.77-4.54.48-9.61 4.44-14.93 3.57-4.7 5.51-8.12 5.29-11.92-.24-4.31-3.12-7.04-8.48-6.82-3.06.17-6.4 1.37-8.43 3.1l-2.34-5.21c2.68-2.19 7.45-3.81 11.96-4.06 9.77-.54 14.52 5.21 14.89 11.64.32 5.75-2.68 10.08-6.47 15.13-3.49 4.6-4.64 8.41-4.14 12.7l.2 2.19-6.63.37v.02Zm-1.2 11.95c-.18-3.13 1.82-5.44 4.8-5.62 2.98-.16 5.14 1.92 5.31 5.05.16 2.96-1.66 5.36-4.8 5.53-2.98.16-5.14-2.01-5.31-4.96Z"/><path fill="#a1a1aa" stroke="#1a2e35" stroke-miterlimit="10" d="M182.36 276.52c85.19 0 154.25-8.7 154.25-19.44s-69.06-19.44-154.25-19.44-154.25 8.7-154.25 19.44 69.06 19.44 154.25 19.44Z"/><path fill="#c90" stroke="#1a2e35" stroke-miterlimit="10" d="m206.22 106.68-1.51-16h-61.94l-2.83 16-27.37 154.58h189.25l27.37-154.58H206.22Z"/><path fill="#fdd100" stroke="#1a2e35" stroke-miterlimit="10" d="M301.56 261.26H111.89L84.97 112.3h189.66l26.93 148.96Z"/><path fill="#e8e8e8" d="M28.43 29.98a30.05 30.05 0 0 0 30.1 29.98h47.3c16.62 0 30.1-13.43 30.1-29.98S122.45 0 105.82 0h-47.3a30.04 30.04 0 0 0-30.09 29.98Z"/><path d="M58.11 32.14v-.22c0-1.03.1-1.85.29-2.45.19-.61.47-1.1.82-1.47a5.9 5.9 0 0 1 1.29-1.03c.35-.22.66-.45.93-.71.28-.26.5-.55.66-.87.16-.32.24-.68.24-1.08a2.14 2.14 0 0 0-1.17-1.94 2.69 2.69 0 0 0-2.33-.01c-.36.17-.66.43-.89.78-.23.35-.36.79-.39 1.32h-3.03a5 5 0 0 1 .78-2.71 4.67 4.67 0 0 1 1.98-1.64 6.72 6.72 0 0 1 2.73-.55c1.09 0 2.04.19 2.86.57a4.36 4.36 0 0 1 2.63 4.12c0 .65-.11 1.23-.32 1.74-.2.51-.5.97-.88 1.36-.38.4-.83.75-1.36 1.07-.46.28-.84.58-1.13.89-.29.31-.51.67-.65 1.08-.14.41-.21.91-.21 1.52v.22h-2.84Zm1.48 5.32a1.8 1.8 0 0 1-1.32-.55c-.37-.36-.55-.81-.55-1.33s.18-.95.55-1.31a1.84 1.84 0 0 1 2.63 0c.38.36.56.8.56 1.31 0 .35-.09.66-.26.95a1.85 1.85 0 0 1-1.61.93Zm11.57-5.32v-.22c0-1.03.1-1.85.29-2.45.19-.61.47-1.1.82-1.47a5.9 5.9 0 0 1 1.29-1.03c.35-.22.66-.45.93-.71.28-.26.5-.55.66-.87.16-.32.24-.68.24-1.08a2.14 2.14 0 0 0-1.17-1.94 2.69 2.69 0 0 0-2.33-.01c-.36.17-.66.43-.89.78-.23.35-.36.79-.39 1.32h-3.03a5 5 0 0 1 .78-2.71 4.67 4.67 0 0 1 1.98-1.64 6.72 6.72 0 0 1 2.73-.55c1.09 0 2.04.19 2.86.57a4.36 4.36 0 0 1 2.63 4.12c0 .65-.11 1.23-.32 1.74-.2.51-.5.97-.88 1.36-.38.4-.83.75-1.36 1.07-.46.28-.84.58-1.13.89-.29.31-.51.67-.65 1.08-.14.41-.21.91-.21 1.52v.22h-2.84Zm1.48 5.32a1.8 1.8 0 0 1-1.32-.55c-.37-.36-.55-.81-.55-1.33s.18-.95.55-1.31a1.84 1.84 0 0 1 2.63 0c.38.36.56.8.56 1.31 0 .35-.09.66-.26.95a1.85 1.85 0 0 1-1.61.93Zm11.57-5.32v-.22c0-1.03.1-1.85.29-2.45.19-.61.47-1.1.82-1.47a5.9 5.9 0 0 1 1.29-1.03c.35-.22.66-.45.93-.71.28-.26.5-.55.66-.87.16-.32.24-.68.24-1.08a2.14 2.14 0 0 0-1.17-1.94 2.69 2.69 0 0 0-2.33-.01c-.36.17-.66.43-.89.78-.23.35-.36.79-.39 1.32h-3.03a5 5 0 0 1 .78-2.71 4.67 4.67 0 0 1 1.98-1.64 6.72 6.72 0 0 1 2.73-.55c1.09 0 2.04.19 2.86.57a4.36 4.36 0 0 1 2.63 4.12c0 .65-.11 1.23-.32 1.74-.2.51-.5.97-.88 1.36-.38.4-.83.75-1.36 1.07-.46.28-.84.58-1.13.89-.29.31-.51.67-.65 1.08-.14.41-.21.91-.21 1.52v.22h-2.84Zm1.48 5.32a1.8 1.8 0 0 1-1.32-.55c-.37-.36-.55-.81-.55-1.33s.18-.95.55-1.31a1.84 1.84 0 0 1 2.63 0c.38.36.56.8.56 1.31 0 .35-.09.66-.26.95a1.85 1.85 0 0 1-1.61.93Z"/><path fill="#2b3135" d="M116.72 94.28c.44 0 .83-.3.94-.74a.96.96 0 0 0-.72-1.17c-27.15-6.47-25.08-40.26-25.06-40.6a.97.97 0 0 0-1.94-.13c-.03.36-2.18 35.77 26.54 42.62l.22.03Z"/><path fill="#ececec" d="m78.31 179.46 6.89 31.17-5.47-2-4.42 7.48-7.69-3.92-7.5 12.98-16.57-11.58-7.82 10.89-6.78-3.9-10.05 13.53-7.92-6.82L0 177.65l55.17-12.09 23.13 13.91Z"/><path fill="#dcdcdc" d="m55.2 165.57 23.12 13.89-19.13 4.21-3.98-18.1Z"/><path fill="#2b3135" d="M162.85 191.36a4.88 4.88 0 0 0-9.76 0 4.87 4.87 0 0 0 9.76 0Zm58.38 0a4.88 4.88 0 0 0-9.76 0 4.87 4.87 0 0 0 9.76 0Z"/><path fill="#71717a" d="M159.43 178.94c-.52-1.78-3.19-1.46-4.84-.44-1.79 1.1-3.18 3.41-2.37 4.29 1.03 1.1 7.93-1.4 7.2-3.84Zm55.55-.33c.52-1.78 3.19-1.46 4.84-.44 1.79 1.1 3.18 3.41 2.36 4.29-1.03 1.1-7.93-1.4-7.2-3.84Z"/><path fill="#1a2e35" d="m197.04 206.74-.33-.63c-.03-.06-3.16-5.81-9.45-5.81-5.74 0-7.13 5.42-7.19 5.65l-.18.69-1.39-.34.17-.69c.02-.07 1.71-6.74 8.59-6.74s10.57 6.3 10.72 6.57l.33.63-1.27.67Z"/></svg>