<?xml version="1.0" standalone="no"?>
<!DOCTYPE svg PUBLIC "-//W3C//DTD SVG 20010904//EN"
 "http://www.w3.org/TR/2001/REC-SVG-20010904/DTD/svg10.dtd">
<svg version="1.0" xmlns="http://www.w3.org/2000/svg"
 width="250.000000pt" height="250.000000pt" viewBox="0 0 250.000000 250.000000"
 preserveAspectRatio="xMidYMid meet">
<metadata>
Created by potrace 1.14, written by Peter Selinger 2001-2017
</metadata>
<g transform="translate(0.000000,250.000000) scale(0.100000,-0.100000)"
fill="#000000" stroke="none">
<path d="M1045 2485 c-400 -69 -736 -319 -916 -681 -28 -56 -51 -108 -52 -115
-2 -8 -5 -18 -9 -24 -11 -18 -35 -116 -57 -230 -10 -54 -8 -351 3 -400 75
-332 205 -553 447 -756 60 -51 233 -159 254 -159 8 0 16 -4 19 -9 6 -9 128
-54 196 -72 117 -30 155 -34 315 -34 167 0 203 4 323 35 420 107 766 447 887
871 34 122 43 189 43 339 0 107 -6 171 -31 300 -19 96 -105 288 -180 401 -140
212 -384 399 -627 482 -179 61 -436 83 -615 52z"/>
</g>
</svg>
