<svg xmlns="http://www.w3.org/2000/svg" width="20" height="20" viewBox="0 0 20 20"><path d="m19.56,5.14c-.11-.43-.34-.82-.65-1.13-.31-.31-.7-.54-1.12-.66-1.55-.43-7.8-.43-7.8-.43,0,0-6.25.01-7.8.44-.42.12-.81.34-1.12.66-.31.31-.53.71-.65,1.13-.47,2.79-.65,7.04.01,9.72.11.43.34.82.65,1.13.31.31.7.54,1.12.66,1.55.43,7.8.43,7.8.43,0,0,6.25,0,7.8-.43.42-.12.81-.34,1.12-.66.31-.31.53-.71.65-1.13.5-2.79.65-7.04-.01-9.73Z" fill="#ff0000"/><path d="m8,13.04l5.18-3.04-5.18-3.04v6.07Z" fill="#fff"/></svg>