<svg xmlns="http://www.w3.org/2000/svg" xmlns:xlink="http://www.w3.org/1999/xlink" style="display:none"><symbol id="arrow-left"><path d="M10.83 19c-.26 0-.52-.1-.72-.3l-5.83-6c-.08-.08-.15-.18-.2-.28s0-.02-.01-.03a.857.857 0 01-.07-.36v-.05c0-.12.03-.24.07-.34.01-.03.02-.06.04-.08.04-.09.1-.17.17-.24l5.83-6a.996.996 0 111.43 1.39l-4.18 4.3h11.63c.55 0 1 .45 1 1s-.45 1-1 1H7.37l4.18 4.3c.39.4.38 1.03-.02 1.41a.99.99 0 01-.7.28z"/></symbol><symbol id="arrow-right"><path d="M13.17 19a.996.996 0 01-.72-1.69l4.18-4.3H5c-.55 0-1-.45-1-1s.45-1 1-1h11.63l-4.18-4.3a.987.987 0 01.02-1.41.996.996 0 011.41.02l5.83 6c.08.08.14.17.19.27 0 .02.01.03.02.05.05.12.07.24.07.38s-.03.26-.07.38c0 .01-.01.03-.02.04-.05.1-.11.19-.19.27l-5.83 6c-.2.2-.46.3-.72.3z"/></symbol><symbol id="asterisk"><path d="M1.932 5.666l-.917-.665L2.1 3.636l-1.68-.49.35-1.078 1.638.609L2.345.92h1.134l-.063 1.757 1.638-.609.35 1.078-1.68.49 1.078 1.365-.917.665-.973-1.442-.98 1.442z"/></symbol><symbol id="calendar"><path d="M17.62 22.59H6.38c-2.27 0-4.12-1.85-4.12-4.12V7.22c0-1.94 1.35-3.58 3.16-4.01V2.16c0-.41.34-.75.75-.75s.75.34.75.75v.94h9.96v-.94c0-.41.34-.75.75-.75s.75.34.75.75v1.01c1.92.35 3.38 2.04 3.38 4.06v11.25c0 2.27-1.85 4.12-4.12 4.12zM3.75 9.27v9.19c0 1.45 1.18 2.62 2.62 2.62h11.25c1.45 0 2.62-1.18 2.62-2.62V9.27c-.11.06-.24.1-.38.1H4.12c-.14 0-.26-.04-.38-.1zm.38-1.4h15.75c.14 0 .26.04.38.1v-.76c0-1.45-1.18-2.62-2.62-2.62H6.38c-1.45 0-2.62 1.18-2.62 2.62v.76c.11-.06.24-.1.38-.1zm8.44 10.54c-.41 0-.75-.29-.75-.71v-.08c0-.41.34-.75.75-.75s.75.34.75.75-.34.79-.75.79zm-5.06 0c-.41 0-.75-.29-.75-.71v-.08c0-.41.34-.75.75-.75s.75.34.75.75-.34.79-.75.79zm9.56-4.58c-.41 0-.75-.29-.75-.71v-.08c0-.41.34-.75.75-.75s.75.34.75.75-.34.79-.75.79zm-4.5 0c-.41 0-.75-.29-.75-.71v-.08c0-.41.34-.75.75-.75s.75.34.75.75-.34.79-.75.79z"/></symbol><symbol id="chevron-down"><path d="M12 15.4c-.26 0-.51-.1-.71-.29l-4.8-4.8A.996.996 0 117.9 8.9l4.09 4.09 4.09-4.09a.996.996 0 111.41 1.41l-4.8 4.8c-.2.2-.45.29-.71.29z"/></symbol><symbol id="chevron-left"><path d="M14.4 17.8c-.26 0-.51-.1-.71-.29l-4.8-4.8c-.19-.19-.29-.44-.29-.71s.11-.52.29-.71l4.8-4.8A.996.996 0 1115.1 7.9l-4.09 4.09 4.09 4.09a.996.996 0 01-.71 1.7z"/></symbol><symbol id="chevron-right"><path d="M9.6 17.8c-.26 0-.51-.1-.71-.29a.996.996 0 010-1.41l4.09-4.09-4.09-4.09a.996.996 0 111.41-1.41l4.8 4.8c.39.39.39 1.02 0 1.41l-4.8 4.8c-.2.2-.45.29-.71.29z"/></symbol><symbol id="chevron-up"><path d="M7.2 15.4c-.26 0-.51-.1-.71-.29a.996.996 0 010-1.41l4.8-4.8a.996.996 0 011.41 0l4.8 4.8a.996.996 0 11-1.41 1.41L12 11.02l-4.09 4.09c-.2.2-.45.29-.71.29z"/></symbol><symbol id="close"><path d="M19 20c-.26 0-.51-.1-.71-.29L12 13.42l-6.29 6.29A.996.996 0 114.3 18.3l6.29-6.29L4.3 5.72a.996.996 0 111.41-1.41L12 10.6l6.29-6.29a.996.996 0 111.41 1.41l-6.29 6.29 6.29 6.29a.996.996 0 01-.71 1.7z"/></symbol><symbol id="download"><path d="M18.3 22.04H5.7c-.83 0-1.61-.33-2.2-.92a.996.996 0 010-1.41.996.996 0 011.41 0c.21.21.48.32.77.32h12.6c.29 0 .57-.12.78-.32a.996.996 0 111.41 1.41c-.59.59-1.37.92-2.2.92zM12 15.95h-.04a.876.876 0 01-.4-.11.832.832 0 01-.25-.18l-4.8-4.58a.996.996 0 111.38-1.44L11 12.61V2.96c0-.55.45-1 1-1s1 .45 1 1v9.66l3.11-2.97a.996.996 0 111.38 1.44l-4.8 4.58c-.08.07-.16.13-.25.18-.02 0-.04.02-.06.03-.11.04-.22.07-.34.07h-.03z"/></symbol><symbol id="facebook-color"><path d="M16.7 15.6l.5-3.5h-3.3V9.8c0-1 .5-1.9 2-1.9h1.5v-3s-1.4-.2-2.7-.2c-2.7 0-4.5 1.7-4.5 4.7v2.7H7.1v3.5h3V24h3.8v-8.4h2.8z" fill="#fff"/><path d="M12 0C5.4 0 0 5.4 0 12.1c0 6 4.4 11 10.1 11.9v-8.4h-3v-3.5h3.1V9.4c0-3 1.8-4.7 4.5-4.7 1.3 0 2.7.2 2.7.2v3h-1.5c-1.5 0-2 .9-2 1.9v2.3h3.3l-.5 3.5h-2.8V24c5.7-.9 10.1-5.9 10.1-11.9C24 5.4 18.6 0 12 0z" fill="#06f"/></symbol><symbol id="facebook"><path d="M24 12.07C24 5.41 18.63 0 12 0S0 5.41 0 12.07C0 18.1 4.39 23.09 10.12 24v-8.44H7.07v-3.49h3.05V9.41c0-3.03 1.79-4.7 4.53-4.7 1.31 0 2.69.24 2.69.24v2.97h-1.51c-1.49 0-1.96.93-1.96 1.89v2.26h3.33l-.53 3.49h-2.8V24c5.74-.91 10.12-5.9 10.12-11.93z"/></symbol><symbol id="filter"><path d="M13.8 17.55h-3.6c-.41 0-.75-.34-.75-.75s.34-.75.75-.75h3.6c.41 0 .75.34.75.75s-.34.75-.75.75zm3.6-4.8H6.6c-.41 0-.75-.34-.75-.75s.34-.75.75-.75h10.8c.41 0 .75.34.75.75s-.34.75-.75.75zm2.4-4.8H4.2c-.41 0-.75-.34-.75-.75s.34-.75.75-.75h15.6c.41 0 .75.34.75.75s-.34.75-.75.75z"/></symbol><symbol id="home" viewBox="0 0 24 24"><path d="M19.6 22.5H4.4c-1.6 0-2.9-1.26-2.9-2.81V9.27c0-.72.36-1.4.97-1.81l8.24-5.57c.77-.52 1.81-.52 2.59 0l8.23 5.57c.61.41.97 1.09.97 1.81v10.42c0 1.55-1.3 2.81-2.9 2.81zM12 3.5c-.06 0-.12.02-.17.05L3.59 9.12a.19.19 0 00-.09.15v10.42c0 .44.4.81.9.81h15.2c.5 0 .9-.36.9-.81V9.27c0-.06-.03-.11-.09-.15l-8.24-5.57A.337.337 0 0012 3.5z"/></symbol><symbol id="menu"><path d="M21.6 20.2H2.4c-.55 0-1-.45-1-1s.45-1 1-1h19.2c.55 0 1 .45 1 1s-.45 1-1 1zm0-7.2H2.4c-.55 0-1-.45-1-1s.45-1 1-1h19.2c.55 0 1 .45 1 1s-.45 1-1 1zm0-7.2H2.4c-.55 0-1-.45-1-1s.45-1 1-1h19.2c.55 0 1 .45 1 1s-.45 1-1 1z"/></symbol><symbol id="pin"><path d="M12 1.25c-4.69 0-8.5 3.81-8.5 8.5 0 5.39 7.52 12.13 7.84 12.42l.66.59.66-.59c.32-.28 7.84-7.03 7.84-12.42 0-4.69-3.81-8.5-8.5-8.5zm0 18.81c-2.29-2.2-6.5-6.94-6.5-10.31 0-3.59 2.92-6.5 6.5-6.5s6.5 2.92 6.5 6.5c0 3.37-4.22 8.11-6.5 10.31z"/><path d="M12 6.04c-1.87 0-3.39 1.52-3.39 3.39s1.52 3.4 3.39 3.4 3.39-1.52 3.39-3.4S13.87 6.04 12 6.04zm0 4.79c-.77 0-1.4-.63-1.4-1.4s.63-1.4 1.4-1.4 1.4.63 1.4 1.4-.63 1.4-1.4 1.4z"/></symbol><symbol id="quote"><path d="M21.29 19h-2.45a1.74 1.74 0 01-1.71-1.75V12.6a2.13 2.13 0 00-2.23-2h-1.22A1.74 1.74 0 0112 8.85v-2.1A1.74 1.74 0 0113.68 5h1.22a7.87 7.87 0 018.1 7.6v4.65A1.74 1.74 0 0121.29 19zm-2.16-2H21v-4.4A5.87 5.87 0 0014.9 7H14v1.6h.93a4.12 4.12 0 014.23 4zm-8.81 2H7.88a1.74 1.74 0 01-1.72-1.75V12.6a2.13 2.13 0 00-2.22-2H2.71A1.74 1.74 0 011 8.85v-2.1A1.74 1.74 0 012.71 5h1.23A7.87 7.87 0 0112 12.6v4.65A1.74 1.74 0 0110.32 19zm-2.16-2H10v-4.4A5.86 5.86 0 003.94 7H3v1.6h.94a4.11 4.11 0 014.22 4z"/></symbol><symbol id="search"><path d="M20.5 21.5c-.25 0-.5-.09-.7-.28l-2.86-2.76a8.879 8.879 0 01-5.52 1.91c-4.93 0-8.93-4.01-8.93-8.93S6.51 2.5 11.43 2.5s8.93 4.01 8.93 8.93c0 2.13-.75 4.08-1.99 5.62l2.82 2.73c.4.38.41 1.02.02 1.41-.2.2-.46.3-.72.3zm-9.07-17c-3.82 0-6.93 3.11-6.93 6.93s3.11 6.93 6.93 6.93 6.93-3.11 6.93-6.93-3.11-6.93-6.93-6.93z"/></symbol></svg>