<svg xmlns="http://www.w3.org/2000/svg" width="24" height="24" viewBox="0 0 24 24"><path d="m17.62,22.59H6.38c-2.27,0-4.12-1.85-4.12-4.12V7.22c0-1.94,1.35-3.58,3.16-4.01v-1.05c0-.41.34-.75.75-.75s.75.34.75.75v.94h9.96v-.94c0-.41.34-.75.75-.75s.75.34.75.75v1.01c1.92.35,3.38,2.04,3.38,4.06v11.25c0,2.27-1.85,4.12-4.12,4.12ZM3.75,9.27v9.19c0,1.45,1.18,2.62,2.62,2.62h11.25c1.45,0,2.62-1.18,2.62-2.62v-9.19c-.11.06-.24.1-.38.1H4.12c-.14,0-.26-.04-.38-.1Zm.38-1.4h15.75c.14,0,.26.04.38.1v-.76c0-1.45-1.18-2.62-2.62-2.62H6.38c-1.45,0-2.62,1.18-2.62,2.62v.76c.11-.06.24-.1.38-.1Zm8.44,10.54c-.41,0-.75-.29-.75-.71v-.08c0-.41.34-.75.75-.75s.75.34.75.75-.34.79-.75.79Zm-5.06,0c-.41,0-.75-.29-.75-.71v-.08c0-.41.34-.75.75-.75s.75.34.75.75-.34.79-.75.79Zm9.56-4.58c-.41,0-.75-.29-.75-.71v-.08c0-.41.34-.75.75-.75s.75.34.75.75-.34.79-.75.79Zm-4.5,0c-.41,0-.75-.29-.75-.71v-.08c0-.41.34-.75.75-.75s.75.34.75.75-.34.79-.75.79Z"/></svg>
