<svg xmlns="http://www.w3.org/2000/svg" width="24" height="24" viewBox="0 0 24 24"><path d="m18.3,22.04H5.7c-.83,0-1.61-.33-2.2-.92-.39-.39-.39-1.03,0-1.41.39-.39,1.03-.39,1.41,0,.21.21.48.32.77.32h12.6c.29,0,.57-.12.78-.32.39-.39,1.02-.39,1.41,0,.39.39.39,1.02,0,1.41-.59.59-1.37.92-2.2.92Zm-6.3-6.09h0s-.03,0-.04,0h0c-.11,0-.22-.03-.32-.07-.03-.01-.05-.02-.08-.04h0s0,0,0,0c0,0,0,0,0,0-.09-.04-.17-.1-.25-.18l-4.8-4.58c-.4-.38-.41-1.01-.03-1.41.38-.4,1.01-.41,1.41-.03l3.11,2.97V2.96c0-.55.45-1,1-1s1,.45,1,1v9.66l3.11-2.97c.4-.38,1.03-.37,1.41.03.38.4.37,1.03-.03,1.41l-4.8,4.58c-.08.07-.16.13-.25.18,0,0,0,0,0,0-.02,0-.04.02-.06.03-.11.04-.22.07-.34.07h0s-.02,0-.03,0Z"/></svg>
