<svg xmlns="http://www.w3.org/2000/svg" width="20" height="20" viewBox="0 0 20 20"><path d="m13.92,13l.42-2.92h-2.75v-1.92c0-.83.42-1.58,1.67-1.58h1.25v-2.5s-1.17-.17-2.25-.17c-2.25,0-3.75,1.42-3.75,3.92v2.25h-2.58v2.92h2.5v7h3.17v-7s2.33,0,2.33,0Z" fill="#fff"/><path d="m10,0C4.5,0,0,4.5,0,10.08c0,5,3.67,9.17,8.42,9.92v-7h-2.5v-2.92h2.58v-2.25c0-2.5,1.5-3.92,3.75-3.92,1.08,0,2.25.17,2.25.17v2.5h-1.25c-1.25,0-1.67.75-1.67,1.58v1.92h2.75l-.42,2.92h-2.33v7c4.75-.75,8.42-4.92,8.42-9.92C20,4.5,15.5,0,10,0Z" fill="#06f"/></svg>