<svg xmlns="http://www.w3.org/2000/svg" width="24" height="24" viewBox="0 0 24 24"><path d="m12,1.25C7.31,1.25,3.5,5.06,3.5,9.75c0,5.39,7.52,12.13,7.84,12.42l.66.59.66-.59c.32-.28,7.84-7.03,7.84-12.42,0-4.69-3.81-8.5-8.5-8.5Zm0,18.81c-2.29-2.2-6.5-6.94-6.5-10.31,0-3.59,2.92-6.5,6.5-6.5s6.5,2.92,6.5,6.5c0,3.37-4.22,8.11-6.5,10.31Z"/><path d="m12,6.04c-1.87,0-3.39,1.52-3.39,3.39s1.52,3.4,3.39,3.4,3.39-1.52,3.39-3.4-1.52-3.39-3.39-3.39Zm0,4.79c-.77,0-1.4-.63-1.4-1.4s.63-1.4,1.4-1.4,1.4.63,1.4,1.4-.63,1.4-1.4,1.4Z"/></svg>
