<svg xmlns="http://www.w3.org/2000/svg" width="17" height="22" viewBox="0 0 17 22"><path d="m2.38,22c-.44,0-.79-.12-1.05-.26-.53-.29-1.18-.96-1.27-2.46L0,2.66C-.02,1.6.41.73,1.19.29c.81-.46,1.85-.37,2.8.23l11.45,8.44c1.26.75,1.54,1.61,1.56,2.2.02.62-.24,1.53-1.56,2.39l-11.36,7.95c-.67.37-1.23.5-1.7.5Zm-.04-19.93c-.06,0-.1,0-.13.02-.07.04-.14.22-.14.53l.05,16.58c.03.48.17.69.2.71.04.01.26.02.7-.21l11.25-7.88c.51-.33.64-.57.65-.62-.01-.03-.14-.23-.58-.48l-.1-.06L2.82,2.23c-.19-.12-.36-.16-.48-.16Z"/></svg>
