<svg xmlns="http://www.w3.org/2000/svg" width="24" height="24" viewBox="0 0 24 24"><path d="M21.29,19H18.84a1.74,1.74,0,0,1-1.71-1.75V12.6a2.13,2.13,0,0,0-2.23-2H13.68A1.74,1.74,0,0,1,12,8.85V6.75A1.74,1.74,0,0,1,13.68,5H14.9A7.87,7.87,0,0,1,23,12.6v4.65A1.74,1.74,0,0,1,21.29,19Zm-2.16-2H21V12.6A5.87,5.87,0,0,0,14.9,7H14V8.6h.93a4.12,4.12,0,0,1,4.23,4Zm-8.81,2H7.88a1.74,1.74,0,0,1-1.72-1.75V12.6a2.13,2.13,0,0,0-2.22-2H2.71A1.74,1.74,0,0,1,1,8.85V6.75A1.74,1.74,0,0,1,2.71,5H3.94A7.87,7.87,0,0,1,12,12.6v4.65A1.74,1.74,0,0,1,10.32,19ZM8.16,17H10V12.6A5.86,5.86,0,0,0,3.94,7H3V8.6h.94a4.11,4.11,0,0,1,4.22,4Z"/></svg>