<svg xmlns="http://www.w3.org/2000/svg" viewBox="0 0 307.88 342.58"><defs><linearGradient id="a" x1="108.17" x2="190.58" y1="137.68" y2="137.68" gradientTransform="matrix(1 0 0 -1 0 313.05)" gradientUnits="userSpaceOnUse"><stop offset="0" stop-color="#fff"/><stop offset=".63" stop-color="#fdfdfd"/><stop offset=".86" stop-color="#f6f6f7"/><stop offset="1" stop-color="#edeef0"/></linearGradient><linearGradient id="b" x1="84.24" x2="214.33" y1="57.14" y2="57.14" gradientTransform="matrix(1 0 0 -1 0 313.05)" gradientUnits="userSpaceOnUse"><stop offset="0" stop-color="#fff"/><stop offset=".63" stop-color="#fdfdfd"/><stop offset=".86" stop-color="#f6f6f7"/><stop offset="1" stop-color="#edeef0"/></linearGradient></defs><path fill="#f0f0f0" d="M77.88 1.49H44.69L0 71.91v20.56h52.68v18.11h25.2V92.47h13.05V71.7H77.88V1.49ZM26.21 70.85l26.15-41.44h.85V71.7H26.2v-.85Zm274.48.85h-13.05V1.49h-33.18l-44.69 70.42v20.56h52.68v18.11h25.2V92.47h13.05V71.7Zm-64.72-.85 26.15-41.44h.85V71.7h-27.01v-.85ZM174.48 6.61C167.59 2.21 159.39 0 149.87 0s-17.72 2.2-24.61 6.61c-6.85 4.37-12.15 10.74-15.87 19.12-3.69 8.35-5.56 18.5-5.59 30.47-.04 11.97 1.81 22.21 5.54 30.73 3.73 8.49 9.04 15 15.93 19.55 6.89 4.51 15.09 6.76 24.61 6.76s17.76-2.24 24.61-6.71c6.89-4.51 12.2-11.03 15.93-19.55 3.73-8.52 5.59-18.79 5.59-30.79.03-11.93-1.81-22.09-5.54-30.47-3.73-8.38-9.05-14.76-15.98-19.12ZM163.67 83c-3.52 5.79-8.11 8.68-13.8 8.68-3.77 0-7.09-1.28-9.96-3.83-2.88-2.59-5.11-6.52-6.71-11.77-1.56-5.26-2.33-11.88-2.29-19.87.04-11.79 1.79-20.53 5.27-26.21 3.48-5.72 8.04-8.58 13.69-8.58 3.8 0 7.12 1.26 9.96 3.78s5.06 6.36 6.66 11.51c1.6 5.11 2.4 11.61 2.4 19.5.04 12.04-1.7 20.97-5.22 26.79Z"/><path fill="#fdd100" d="M307.88 165.17a31.07 31.07 0 0 1-31.07 31.05h-48.83a31.06 31.06 0 1 1 0-62.1h48.83a31.06 31.06 0 0 1 31.07 31.05Z"/><path fill="#2b3135" d="M259.94 335.37s.24 2.02.06 4.05c-.23 2.75-2.98 2.67-2.98 2.67H42.7s-2.59 0-3.17-.72c-1.14-1.41-.44-6.1-.44-6.1-.14 1.03 1.09 2.3 3.72 2.41h213.43c1.69 0 3.62-1.19 3.68-2.31h.02Z"/><path fill="#1e120d" d="M257.09 342.58H42.7c-.66 0-2.88-.07-3.56-.91-1.24-1.53-.62-5.98-.54-6.48l.99.14c-.03.24.06.5.27.75.25.3 1.04 1.01 2.97 1.09h213.41c1.53 0 3.14-1.07 3.18-1.84l.03-.47h.92l.07.44c.01.08.25 2.09.06 4.15-.21 2.48-2.27 3.13-3.41 3.13Zm-217.68-5.53c-.09 1.58-.02 3.35.51 3.99.26.32 1.65.53 2.78.54h214.32c.25 0 2.3-.01 2.48-2.21.08-.87.07-1.75.05-2.45a5.34 5.34 0 0 1-3.31 1.25H42.81a5.45 5.45 0 0 1-3.4-1.12Z"/><path fill="#71717a" d="M259.81 334.83c.1.18.14.36.12.55-.06 1.12-2 2.31-3.68 2.31H42.82c-2.63-.11-3.86-1.38-3.72-2.41.02-.15.08-.31.16-.45.64-1.06 21.41-29.9 21.41-29.9 2.59-2.6 8.8-2.86 10.77-2.86h156.18c1.97 0 8.62.12 10.77 2.86 0 0 20.73 28.65 21.42 29.9Z"/><path fill="#1e120d" d="M256.25 338.18H42.82c-1.68-.07-3-.58-3.72-1.44a1.99 1.99 0 0 1-.5-1.53c.04-.26.14-.49.22-.63.65-1.08 20.59-28.76 21.44-29.94 2.83-2.85 9.27-3.07 11.18-3.07h156.18c3.28 0 9.08.4 11.17 3.05.86 1.19 20.76 28.7 21.46 29.96.15.27.21.56.18.85-.08 1.47-2.36 2.76-4.18 2.76ZM71.44 302.56c-1.29 0-7.85.13-10.42 2.71a3901.07 3901.07 0 0 0-21.33 29.8.9.9 0 0 0-.09.26 1 1 0 0 0 .27.76c.25.3 1.04 1.01 2.97 1.09h213.41c1.49 0 3.14-1.08 3.18-1.84 0-.08 0-.16-.06-.28-.53-.97-14.22-19.95-21.39-29.85-1.32-1.68-5.1-2.65-10.37-2.65H71.44Z"/><path fill="#a83532" d="M230.32 315.02c.08 5.53-35.87 18.34-80.12 18.34s-79.78-12.81-80.12-18.34c-.14-2.3 1.62-4.48 4.94-6.51l.08.02a2680.8 2680.8 0 0 0-1.72 6.19s20.62 15.71 76.48 15.71 75.81-15.71 75.81-15.71l-1.91-6.8.21-.05c4.05 2.2 6.32 4.62 6.36 7.15Z"/><path fill="#1e120d" d="M150.2 333.86c-43.49 0-80.23-12.45-80.62-18.81-.15-2.43 1.59-4.77 5.18-6.96l.18-.11.7.17-.06.52-1.63 5.85c2.62 1.79 24.26 15.42 75.9 15.42s72.68-13.62 75.23-15.41l-1.82-6.46-.14-.5.9-.21.17.09c4.35 2.36 6.58 4.91 6.62 7.58v.51h-.07a3.91 3.91 0 0 1-1.05 1.65c-5.74 5.83-38.11 16.69-79.5 16.69Zm-75.91-24.28c-2.57 1.78-3.82 3.59-3.71 5.41.31 5.04 35.92 17.87 79.62 17.87 40.52 0 73.31-10.83 78.79-16.39.55-.55.83-1.05.83-1.44v-.26c-.18-2.01-2-4.08-5.31-6.01l1.64 5.83.09.32-.26.21c-.2.16-20.72 15.82-76.12 15.82s-76.57-15.66-76.78-15.82l-.27-.21.09-.33 1.39-5Z"/><path fill="url(#a)" d="M190.44 190.75s-15.22 5.09-41.24 4.73c-24.34-.34-40.9-4.73-40.9-4.73l-.12-.04c3.39-12 6.73-23.72 9.84-34.54l.41.12s13.85 2.7 31.35 2.37c16.66-.32 30.51-3.38 30.51-3.38l.14-.04c3.19 11.1 6.64 23.14 10.15 35.46l-.14.05Z"/><path fill="#1e120d" d="M151.79 196c-.86 0-1.72 0-2.6-.02-24.12-.34-40.86-4.7-41.03-4.74l-.6-.2.13-.46c3.41-12.07 6.72-23.69 9.84-34.54l.14-.48.89.26c.09.02 13.97 2.67 31.2 2.35 16.41-.32 30.27-3.34 30.41-3.37l.59-.17.14.48c3.19 11.1 6.64 23.14 10.15 35.46l.13.45-.59.21c-.15.05-14.56 4.77-38.8 4.77Zm-43-5.63c2.48.61 18.33 4.31 40.41 4.62 23.6.32 38.46-3.9 40.77-4.6-3.42-11.99-6.78-23.71-9.89-34.54-2.26.47-15.21 3.03-30.29 3.32-16.98.31-30.71-2.24-31.43-2.37a8327.04 8327.04 0 0 0-9.57 33.57Z"/><path fill="url(#b)" d="m214.33 274.46-.25.07s-25.35 9.47-67.6 9.47-61.86-8.12-61.86-8.12l-.38-.11c3.85-13.78 8.43-30.15 13.25-47.26l.31.08s21.64 4.73 51.05 4.73 52.06-5.41 52.06-5.41l.24-.07c4.77 16.82 9.32 32.94 13.18 46.61Z"/><path fill="#1e120d" d="M146.48 284.5c-41.87 0-61.86-8.07-62.05-8.16l-.8-.23.13-.48c3.85-13.78 8.43-30.15 13.25-47.26l.13-.47.78.2c.2.04 21.91 4.71 50.92 4.71s51.72-5.34 51.94-5.39l.7-.2.14.48 13.19 46.61.02.14v.38l-.62.18c-.21.08-25.88 9.49-67.74 9.49Zm-61.63-9.06c1.52.59 21.4 8.06 61.63 8.06s64.86-8.52 67.24-9.37c-3.8-13.45-8.25-29.22-12.92-45.68-2.56.58-24.44 5.37-51.95 5.37s-49.05-4.3-51.01-4.71c-4.72 16.75-9.2 32.77-12.99 46.33Z"/><path fill="#ff4141" d="m180.44 155.24-.15.05s-13.85 3.06-30.51 3.38c-17.5.34-31.35-2.37-31.35-2.37l-.41-.12c9.22-32.17 16.37-56.87 17.16-57.21 0 0 5.23-.58 14.7-1.11 6-.34 13.78 1.11 13.78 1.11.68.51 7.55 24.25 16.79 56.27Z"/><path fill="#1e120d" d="M146.76 159.2c-15.92 0-28.29-2.38-28.43-2.41l-.93-.27.14-.48c14.1-49.19 16.62-57.18 17.44-57.53l.14-.04c.05 0 5.35-.59 14.72-1.11 5.99-.34 13.83 1.1 13.91 1.12l.11.02.09.07c.69.52 3.86 11.08 16.97 56.53l.13.46-.6.2c-.19.04-14.13 3.09-30.66 3.41l-3.03.03Zm-28.12-3.37c1.08.2 14.54 2.65 31.13 2.34a176.35 176.35 0 0 0 30.05-3.29c-7.55-26.18-15.3-53.06-16.46-55.45-1.28-.23-8.12-1.36-13.45-1.06-8.3.46-13.39.97-14.46 1.08-1.35 2.52-10.22 33.43-16.8 56.39Z"/><path fill="#ff4141" d="m201.15 227.85-.24.07s-22.65 5.41-52.06 5.41-51.05-4.73-51.05-4.73l-.31-.08c3.49-12.43 7.11-25.26 10.67-37.78l.12.04s16.56 4.39 40.9 4.73c26.02.36 41.24-4.73 41.24-4.73l.15-.05c3.52 12.32 7.1 24.92 10.56 37.14Z"/><path fill="#1e120d" d="M148.85 233.83c-29.13 0-50.94-4.69-51.16-4.74l-.82-.21.14-.49c3.49-12.44 7.11-25.26 10.67-37.79l.14-.5.62.21c.13.04 16.75 4.37 40.75 4.7 25.6.34 40.93-4.65 41.08-4.7l.65-.21.14.5c3.47 12.15 7.01 24.58 10.42 36.64l.16-.05v4.28l-.85-3c-2.58.59-24.45 5.37-51.95 5.37Zm-50.74-5.67c2.18.46 23.16 4.67 50.74 4.67s49.04-4.73 51.68-5.33a15504.9 15504.9 0 0 0-10.28-36.14c-2.42.74-17.38 4.96-41.06 4.65-22.2-.31-38.13-4.03-40.67-4.66-3.47 12.21-6.99 24.69-10.4 36.81Z"/><path fill="#ff4141" d="m223.75 307.93 1.91 6.8s-19.95 15.71-75.81 15.71-76.48-15.71-76.48-15.71l1.72-6.19 9.13-32.77.38.11s21.64 8.12 61.86 8.12c42.26 0 67.6-9.47 67.6-9.47l.25-.07 9.41 33.47Z"/><path fill="#1e120d" d="M149.86 330.94c-55.39 0-76.57-15.66-76.78-15.82l-.27-.21.09-.33 1.72-6.19 9.13-32.77.14-.49.87.25c.25.09 22.07 8.1 61.72 8.1 41.67 0 67.18-9.34 67.43-9.44l.77-.22 4.61 16.39 4.84 17.22.11.34 1.91 6.8.09.32-.26.21c-.2.16-20.72 15.82-76.12 15.82Zm-75.9-16.42c2.62 1.79 24.26 15.42 75.9 15.42s72.68-13.62 75.23-15.41l-1.71-6.1h-.01l-.1-.37-4.94-17.56-4.34-15.41c-2.62.92-27.76 9.41-67.51 9.41s-59.97-7.41-61.9-8.1a13051.12 13051.12 0 0 0-10.62 38.12Z"/><path fill="#a83532" d="M163.64 98.97c0 1.05-6.37 1.89-14.24 1.89s-14.24-.85-14.24-1.89 6.37-1.89 14.24-1.89 14.24.85 14.24 1.89Z"/><path fill="#1e120d" d="M149.41 101.36c-2.46 0-14.73-.12-14.73-2.39s12.27-2.39 14.73-2.39 14.73.12 14.73 2.39-12.27 2.39-14.73 2.39Zm-13.63-2.39c.97.6 6 1.39 13.63 1.39s12.68-.78 13.63-1.39c-.96-.6-6-1.39-13.63-1.39s-12.66.79-13.63 1.39Z"/><path fill="#2b3135" d="M131.12 251.35a3.49 3.49 0 1 0-6.97 0 3.49 3.49 0 0 0 6.97 0Zm41.7 0a3.49 3.49 0 1 0-6.97 0 3.49 3.49 0 0 0 6.97 0Z"/><path fill="#f9a7da" d="M121.93 272.26a7.91 7.91 0 1 0 .02-15.82 7.91 7.91 0 0 0-.02 15.82Zm64.04-7.61a7.92 7.92 0 1 0-15.84 0 7.92 7.92 0 0 0 15.84 0Z"/><path fill="#71717a" d="M128.68 242.45c-.38-1.27-2.27-1.04-3.45-.32-1.28.79-2.27 2.44-1.69 3.07.74.79 5.66-1 5.14-2.75Zm39.66-.24c.37-1.27 2.28-1.04 3.45-.32 1.28.79 2.27 2.44 1.69 3.07-.74.79-5.66-1-5.14-2.75Z"/><path fill="#2b3135" d="M151.67 256.94c0 1.64-.97 2.97-2.16 2.97s-2.16-1.33-2.16-2.97.97-2.97 2.16-2.97 2.16 1.33 2.16 2.97Zm64.74-25.18a1 1 0 0 1-.23-1.98c28.02-6.7 25.89-41.69 25.87-42.04a1 1 0 1 1 2-.14c.03.37 2.25 37.04-27.4 44.13a.97.97 0 0 1-.23.03h-.01Z"/><path d="m234.44 167.41 5.24-8.92h3.17v13.09h-2.98v-8.92l-5.23 8.92h-3.18v-13.09h2.98v8.92Zm4.4-13.42h2.31c0 .99-.36 1.8-1.08 2.42-.72.61-1.69.92-2.92.92s-2.18-.31-2.91-.92a3.04 3.04 0 0 1-1.07-2.42h2.29c0 .41.12.78.38 1.1.26.32.69.48 1.3.48s1.03-.16 1.29-.48c.26-.32.39-.68.4-1.1Zm12.89 17.85a6.32 6.32 0 0 1-3.32-.84 5.72 5.72 0 0 1-2.18-2.36c-.51-1.01-.77-2.19-.77-3.54s.26-2.54.77-3.55a5.69 5.69 0 0 1 2.18-2.37c.94-.56 2.05-.84 3.32-.84s2.39.28 3.32.84a5.6 5.6 0 0 1 2.17 2.37c.52 1.02.78 2.2.78 3.55s-.26 2.53-.78 3.54a5.63 5.63 0 0 1-2.17 2.36c-.94.56-2.05.84-3.32.84Zm.02-2.47c.69 0 1.27-.19 1.74-.57.47-.39.81-.9 1.04-1.55.23-.65.35-1.37.35-2.17s-.12-1.52-.35-2.17a3.47 3.47 0 0 0-1.04-1.56c-.47-.39-1.05-.58-1.74-.58s-1.3.19-1.77.58c-.46.39-.82.91-1.05 1.56-.23.65-.34 1.37-.34 2.17s.11 1.52.34 2.17c.23.65.58 1.16 1.05 1.55.47.38 1.06.57 1.77.57Zm11.85-1.96 5.24-8.92h3.17v13.09h-2.98v-8.92l-5.22 8.92h-3.18v-13.09h2.98v8.92Zm4.4-13.42h2.31c0 .99-.36 1.8-1.08 2.42-.72.61-1.69.92-2.92.92s-2.18-.31-2.91-.92a3.04 3.04 0 0 1-1.07-2.42h2.29c0 .41.12.78.38 1.1.26.32.69.48 1.3.48s1.03-.16 1.29-.48c.26-.32.39-.68.4-1.1Zm10.96.14-.28 12.32h-2.74l-.27-12.32h3.3Zm-1.65 17.64a1.8 1.8 0 0 1-1.33-.55c-.36-.36-.55-.81-.55-1.33s.18-.95.55-1.31c.37-.36.81-.54 1.33-.54s.94.18 1.31.54c.38.36.56.8.56 1.31 0 .35-.09.66-.26.95a1.85 1.85 0 0 1-1.61.93Z"/></svg>